<mxfile host="65bd71144e">
    <diagram id="FSbIi_ulTAHl1pl8YxlV" name="Page-1">
        <mxGraphModel dx="1882" dy="643" grid="1" gridSize="10" guides="1" tooltips="1" connect="1" arrows="1" fold="1" page="1" pageScale="1" pageWidth="850" pageHeight="1100" math="0" shadow="0">
            <root>
                <mxCell id="0"/>
                <mxCell id="1" parent="0"/>
                <mxCell id="4" style="edgeStyle=none;html=1;" edge="1" parent="1" source="3">
                    <mxGeometry relative="1" as="geometry">
                        <mxPoint x="190" y="55" as="targetPoint"/>
                    </mxGeometry>
                </mxCell>
                <mxCell id="12" style="edgeStyle=orthogonalEdgeStyle;html=1;entryX=0;entryY=0.5;entryDx=0;entryDy=0;" edge="1" parent="1" source="3" target="11">
                    <mxGeometry relative="1" as="geometry">
                        <Array as="points">
                            <mxPoint x="150" y="55"/>
                            <mxPoint x="150" y="260"/>
                        </Array>
                    </mxGeometry>
                </mxCell>
                <mxCell id="14" style="edgeStyle=orthogonalEdgeStyle;html=1;entryX=0;entryY=0.5;entryDx=0;entryDy=0;" edge="1" parent="1" source="3" target="13">
                    <mxGeometry relative="1" as="geometry">
                        <Array as="points">
                            <mxPoint x="150" y="55"/>
                            <mxPoint x="150" y="330"/>
                        </Array>
                    </mxGeometry>
                </mxCell>
                <mxCell id="3" value="Routes" style="text;html=1;strokeColor=none;fillColor=none;align=center;verticalAlign=middle;whiteSpace=wrap;rounded=0;" vertex="1" parent="1">
                    <mxGeometry x="70" y="40" width="60" height="30" as="geometry"/>
                </mxCell>
                <mxCell id="8" style="edgeStyle=orthogonalEdgeStyle;html=1;entryX=0.006;entryY=0.606;entryDx=0;entryDy=0;entryPerimeter=0;" edge="1" parent="1" target="6">
                    <mxGeometry relative="1" as="geometry">
                        <mxPoint x="130" y="55" as="sourcePoint"/>
                        <Array as="points">
                            <mxPoint x="150" y="55"/>
                            <mxPoint x="150" y="126"/>
                        </Array>
                    </mxGeometry>
                </mxCell>
                <mxCell id="10" style="edgeStyle=orthogonalEdgeStyle;html=1;entryX=0;entryY=0.5;entryDx=0;entryDy=0;exitX=1;exitY=0.5;exitDx=0;exitDy=0;" edge="1" parent="1" source="3" target="9">
                    <mxGeometry relative="1" as="geometry">
                        <Array as="points">
                            <mxPoint x="150" y="55"/>
                            <mxPoint x="150" y="200"/>
                            <mxPoint x="190" y="200"/>
                        </Array>
                    </mxGeometry>
                </mxCell>
                <mxCell id="5" value="home: /" style="rounded=1;whiteSpace=wrap;html=1;" vertex="1" parent="1">
                    <mxGeometry x="190" y="25" width="120" height="60" as="geometry"/>
                </mxCell>
                <mxCell id="22" style="edgeStyle=orthogonalEdgeStyle;html=1;entryX=0;entryY=0.5;entryDx=0;entryDy=0;" edge="1" parent="1" source="6" target="21">
                    <mxGeometry relative="1" as="geometry"/>
                </mxCell>
                <mxCell id="6" value="/clientes" style="rounded=1;whiteSpace=wrap;html=1;" vertex="1" parent="1">
                    <mxGeometry x="190" y="90" width="120" height="60" as="geometry"/>
                </mxCell>
                <mxCell id="9" value="/proveedores" style="rounded=1;whiteSpace=wrap;html=1;" vertex="1" parent="1">
                    <mxGeometry x="190" y="160" width="120" height="60" as="geometry"/>
                </mxCell>
                <mxCell id="11" value="/productos" style="rounded=1;whiteSpace=wrap;html=1;" vertex="1" parent="1">
                    <mxGeometry x="190" y="230" width="120" height="60" as="geometry"/>
                </mxCell>
                <mxCell id="15" style="edgeStyle=orthogonalEdgeStyle;html=1;" edge="1" parent="1" source="13">
                    <mxGeometry relative="1" as="geometry">
                        <mxPoint x="360" y="330" as="targetPoint"/>
                    </mxGeometry>
                </mxCell>
                <mxCell id="18" style="edgeStyle=orthogonalEdgeStyle;html=1;entryX=0;entryY=0.5;entryDx=0;entryDy=0;" edge="1" parent="1" source="13" target="17">
                    <mxGeometry relative="1" as="geometry"/>
                </mxCell>
                <mxCell id="20" style="edgeStyle=orthogonalEdgeStyle;html=1;entryX=0;entryY=0.5;entryDx=0;entryDy=0;" edge="1" parent="1" source="13" target="19">
                    <mxGeometry relative="1" as="geometry"/>
                </mxCell>
                <mxCell id="13" value="/ventas" style="rounded=1;whiteSpace=wrap;html=1;" vertex="1" parent="1">
                    <mxGeometry x="190" y="300" width="120" height="60" as="geometry"/>
                </mxCell>
                <mxCell id="16" value="/ventas/presupuestos" style="rounded=1;whiteSpace=wrap;html=1;" vertex="1" parent="1">
                    <mxGeometry x="360" y="300" width="140" height="60" as="geometry"/>
                </mxCell>
                <mxCell id="17" value="/ventas/proforma" style="rounded=1;whiteSpace=wrap;html=1;" vertex="1" parent="1">
                    <mxGeometry x="360" y="370" width="140" height="60" as="geometry"/>
                </mxCell>
                <mxCell id="19" value="/ventas/comprobante" style="rounded=1;whiteSpace=wrap;html=1;" vertex="1" parent="1">
                    <mxGeometry x="360" y="440" width="140" height="60" as="geometry"/>
                </mxCell>
                <mxCell id="21" value="/clientes/historial" style="rounded=1;whiteSpace=wrap;html=1;" vertex="1" parent="1">
                    <mxGeometry x="355" y="90" width="140" height="60" as="geometry"/>
                </mxCell>
                <mxCell id="23" value="compoentes&amp;nbsp;" style="text;html=1;strokeColor=none;fillColor=none;align=center;verticalAlign=middle;whiteSpace=wrap;rounded=0;" vertex="1" parent="1">
                    <mxGeometry x="670" y="25" width="60" height="30" as="geometry"/>
                </mxCell>
                <mxCell id="26" value="" style="edgeStyle=orthogonalEdgeStyle;html=1;" edge="1" parent="1" source="24" target="25">
                    <mxGeometry relative="1" as="geometry"/>
                </mxCell>
                <mxCell id="24" value="main.tsx" style="rounded=0;whiteSpace=wrap;html=1;" vertex="1" parent="1">
                    <mxGeometry x="660" y="55" width="120" height="60" as="geometry"/>
                </mxCell>
                <mxCell id="28" value="" style="edgeStyle=orthogonalEdgeStyle;html=1;" edge="1" parent="1" source="25" target="27">
                    <mxGeometry relative="1" as="geometry"/>
                </mxCell>
                <mxCell id="25" value="PiattiApp" style="whiteSpace=wrap;html=1;rounded=0;" vertex="1" parent="1">
                    <mxGeometry x="860" y="140" width="120" height="60" as="geometry"/>
                </mxCell>
                <mxCell id="31" value="" style="edgeStyle=orthogonalEdgeStyle;html=1;" edge="1" parent="1" source="27" target="30">
                    <mxGeometry relative="1" as="geometry"/>
                </mxCell>
                <mxCell id="35" style="edgeStyle=orthogonalEdgeStyle;html=1;entryX=0;entryY=0.5;entryDx=0;entryDy=0;" edge="1" parent="1" source="27" target="32">
                    <mxGeometry relative="1" as="geometry"/>
                </mxCell>
                <mxCell id="36" style="edgeStyle=orthogonalEdgeStyle;html=1;entryX=0;entryY=0.5;entryDx=0;entryDy=0;" edge="1" parent="1" source="27" target="33">
                    <mxGeometry relative="1" as="geometry"/>
                </mxCell>
                <mxCell id="37" style="edgeStyle=orthogonalEdgeStyle;html=1;entryX=0;entryY=0.5;entryDx=0;entryDy=0;" edge="1" parent="1" source="27" target="34">
                    <mxGeometry relative="1" as="geometry"/>
                </mxCell>
                <mxCell id="27" value="PiattiRouter" style="whiteSpace=wrap;html=1;rounded=0;" vertex="1" parent="1">
                    <mxGeometry x="860" y="250" width="120" height="60" as="geometry"/>
                </mxCell>
                <mxCell id="30" value="ClientRoutes" style="whiteSpace=wrap;html=1;rounded=1;" vertex="1" parent="1">
                    <mxGeometry x="1060" y="250" width="120" height="60" as="geometry"/>
                </mxCell>
                <mxCell id="32" value="ProviderRoutes" style="rounded=1;whiteSpace=wrap;html=1;" vertex="1" parent="1">
                    <mxGeometry x="1060" y="320" width="120" height="60" as="geometry"/>
                </mxCell>
                <mxCell id="33" value="ProductRoutes" style="rounded=1;whiteSpace=wrap;html=1;" vertex="1" parent="1">
                    <mxGeometry x="1060" y="390" width="120" height="60" as="geometry"/>
                </mxCell>
                <mxCell id="34" value="SalesRoutes" style="rounded=1;whiteSpace=wrap;html=1;" vertex="1" parent="1">
                    <mxGeometry x="1060" y="460" width="120" height="60" as="geometry"/>
                </mxCell>
                <mxCell id="39" value="" style="shape=image;verticalLabelPosition=bottom;labelBackgroundColor=default;verticalAlign=top;aspect=fixed;imageAspect=0;image=data:image/png,iVBORw0KGgoAAAANSUhEUgAAB4IAAAOXCAYAAADBy4zLAAAACXBIWXMAAAsTAAALEwEAmpwYAAAAAXNSR0IArs4c6QAAAARnQU1BAACxjwv8YQUAACNySURBVHgB7NsxcUIBFETRl8y3EgnpU8ZBJqHERCRgghKwgQ/EgADogcs55Vq4s2/nmf8BeGB/m/3Xrf3w/XscAAAAAAAArrwPAAAAAAAAAClCMAAAAAAAAECMEAwAAAAAAAAQIwQDAAAAAAAAxAjBAAAAAAAAADFCMAAAAAAAAECMEAwAAAAAAAAQIwQDAAAAAAAAxAjBAAAAAAAAADFCMAAAAAAAAECMEAwAAAAAAAAQIwQDAAAAAAAAxCwDUPWxXQ0AAAAAAMA9nda7uQOPYAAAAAAAAIAYIRgAAAAAAAAgRggGAAAAAAAAiBGCAQAAAAAAAGKEYAAAAAAAAIAYIRgAAAAAAAAgRggGAAAAAAAAiBGCAQAAAAAAAGKEYAAAAAAAAIAYIRgAAAAAAAAgRggGAAAAAAAAiBGCAQAAAAAAAGKEYAAAAAAAAIAYIRgAAAAAAAAgRggGAAAAAAAAiBGCAQAAAAAAAGKEYAAAAAAAAIAYIRgAAAAAAAAgRggGAAAAAAAAiBGCAQAAAAAAAGKEYAAAAAAAAIAYIRgAAAAAAAAgRggGAAAAAAAAiBGCAQAAAAAAAGKEYAAAAAAAAIAYIRgAAAAAAAAgRggGAAAAAAAAiBGCAQAAAAAAAGKEYAAAAAAAAIAYIRgAAAAAAAAgRggGAAAAAAAAiBGCAQAAAAAAAGKEYAAAAAAAAIAYIRgAAAAAAAAgRggGAAAAAAAAiBGCAQAAAAAAAGKEYAAAAAAAAIAYIRgAAAAAAAAgRggGAAAAAAAAiBGCAQAAAAAAAGKEYAAAAAAAAIAYIRgAAAAAAAAgRggGAAAAAAAAiBGCAQAAAAAAAGKEYAAAAAAAAIAYIRgAAAAAAAAgRggGAAAAAAAAiBGCAQAAAAAAAGKEYAAAAAAAAIAYIRgAAAAAAAAgRggGAAAAAAAAiBGCAQAAAAAAAGKEYAAAAAAAAIAYIRgAAAAAAAAgRggGAAAAAAAAiBGCAQAAAAAAAGKEYAAAAAAAAIAYIRgAAAAAAAAgRggGAAAAAAAAiBGCAQAAAAAAAGKEYAAAAAAAAIAYIRgAAAAAAAAgRggGAAAAAAAAiBGCAQAAAAAAAGKEYAAAAAAAAIAYIRgAAAAAAAAgRggGAAAAAAAAiBGCAQAAAAAAAGKEYAAAAAAAAIAYIRgAAAAAAAAgRggGAAAAAAAAiBGCAQAAAAAAAGKEYAAAAAAAAIAYIRgAAAAAAAAgRggGAAAAAAAAiBGCAQAAAAAAAGKEYAAAAAAAAIAYIRgAAAAAAAAgRggGAAAAAAAAiBGCAQAAAAAAAGKEYAAAAAAAAIAYIRgAAAAAAAAgRggGAAAAAAAAiBGCAQAAAAAAAGKEYAAAAAAAAIAYIRgAAAAAAAAgRggGAAAAAAAAiBGCAQAAAAAAAGKEYAAAAAAAAIAYIRgAAAAAAAAgRggGAAAAAAAAiBGCAQAAAAAAAGKEYAAAAAAAAIAYIRgAAAAAAAAgRggGAAAAAAAAiBGCAQAAAAAAAGKEYAAAAAAAAIAYIRgAAAAAAAAgRggGAAAAAAAAiBGCAQAAAAAAAGKEYAAAAAAAAIAYIRgAAAAAAAAgRggGAAAAAAAAiBGCAQAAAAAAAGKEYAAAAAAAAIAYIRgAAAAAAAAgRggGAAAAAAAAiBGCAQAAAAAAAGKEYAAAAAAAAIAYIRgAAAAAAAAgRggGAAAAAAAAiBGCAQAAAAAAAGKEYAAAAAAAAIAYIRgAAAAAAAAgRggGAAAAAAAAiBGCAQAAAAAAAGKEYAAAAAAAAIAYIRgAAAAAAAAgRggGAAAAAAAAiBGCAQAAAAAAAGKEYAAAAAAAAIAYIRgAAAAAAAAgRggGAAAAAAAAiBGCAQAAAAAAAGKEYAAAAAAAAIAYIRgAAAAAAAAgRggGAAAAAAAAiBGCAQAAAAAAAGKEYAAAAAAAAIAYIRgAAAAAAAAgRggGAAAAAAAAiBGCAQAAAAAAAGKEYAAAAAAAAIAYIRgAAAAAAAAgRggGAAAAAAAAiBGCAQAAAAAAAGKEYAAAAAAAAIAYIRgAAAAAAAAgRggGAAAAAAAAiBGCAQAAAAAAAGKEYAAAAAAAAIAYIRgAAAAAAAAgRggGAAAAAAAAiBGCAQAAAAAAAGKEYAAAAAAAAIAYIRgAAAAAAAAgRggGAAAAAAAAiBGCAQAAAAAAAGKEYAAAAAAAAIAYIRgAAAAAAAAgRggGAAAAAAAAiBGCAQAAAAAAAGKEYAAAAAAAAIAYIRgAAAAAAAAgRggGAAAAAAAAiBGCAQAAAAAAAGKEYAAAAAAAAIAYIRgAAAAAAAAgRggGAAAAAAAAiBGCAQAAAAAAAGKEYAAAAAAAAIAYIRgAAAAAAAAgRggGAAAAAAAAiBGCAQAAAAAAAGKEYAAAAAAAAIAYIRgAAAAAAAAgRggGAAAAAAAAiBGCAQAAAAAAAGKEYAAAAAAAAIAYIRgAAAAAAAAgRggGAAAAAAAAiBGCAQAAAAAAAGKEYAAAAAAAAIAYIRgAAAAAAAAgRggGAAAAAAAAiBGCAQAAAAAAAGKEYAAAAAAAAIAYIRgAAAAAAAAgRggGAAAAAAAAiBGCAQAAAAAAAGKEYAAAAAAAAIAYIRgAAAAAAAAgRggGAAAAAAAAiBGCAQAAAAAAAGKEYAAAAAAAAIAYIRgAAAAAAAAgRggGAAAAAAAAiBGCAQAAAAAAAGKEYAAAAAAAAIAYIRgAAAAAAAAgRggGAAAAAAAAiBGCAQAAAAAAAGKEYAAAAAAAAIAYIRgAAAAAAAAgRggGAAAAAAAAiBGCAQAAAAAAAGKEYAAAAAAAAIAYIRgAAAAAAAAgRggGAAAAAAAAiBGCAQAAAAAAAGKEYAAAAAAAAIAYIRgAAAAAAAAgRggGAAAAAAAAiBGCAQAAAAAAAGKEYAAAAAAAAIAYIRgAAAAAAAAgRggGAAAAAAAAiBGCAQAAAAAAAGKEYAAAAAAAAIAYIRgAAAAAAAAgRggGAAAAAAAAiBGCAQAAAAAAAGKEYAAAAAAAAIAYIRgAAAAAAAAgRggGAAAAAAAAiBGCAQAAAAAAAGKEYAAAAAAAAIAYIRgAAAAAAAAgRggGAAAAAAAAiBGCAQAAAAAAAGKEYAAAAAAAAIAYIRgAAAAAAAAgRggGAAAAAAAAiBGCAQAAAAAAAGKEYAAAAAAAAIAYIRgAAAAAAAAgRggGAAAAAAAAiBGCAQAAAAAAAGKEYAAAAAAAAIAYIRgAAAAAAAAgRggGAAAAAAAAiBGCAQAAAAAAAGKEYAAAAAAAAIAYIRgAAAAAAAAgRggGAAAAAAAAiBGCAQAAAAAAAGKEYAAAAAAAAIAYIRgAAAAAAAAgRggGAAAAAAAAiBGCAQAAAAAAAGKEYAAAAAAAAIAYIRgAAAAAAAAgRggGAAAAAAAAiBGCAQAAAAAAAGKEYAAAAAAAAIAYIRgAAAAAAAAgRggGAAAAAAAAiBGCAQAAAAAAAGKEYAAAAAAAAIAYIRgAAAAAAAAgRggGAAAAAAAAiBGCAQAAAAAAAGKEYAAAAAAAAIAYIRgAAAAAAAAgRggGAAAAAAAAiBGCAQAAAAAAAGKEYAAAAAAAAIAYIRgAAAAAAAAgRggGAAAAAAAAiBGCAQAAAAAAAGKEYAAAAAAAAIAYIRgAAAAAAAAgRggGAAAAAAAAiBGCAQAAAAAAAGKEYAAAAAAAAIAYIRgAAAAAAAAgRggGAAAAAAAAiBGCAQAAAAAAAGKEYAAAAAAAAIAYIRgAAAAAAAAgRggGAAAAAAAAiBGCAQAAAAAAAGKEYAAAAAAAAIAYIRgAAAAAAAAgRggGAAAAAAAAiBGCAQAAAAAAAGKEYAAAAAAAAIAYIRgAAAAAAAAgRggGAAAAAAAAiFkGoOq03g0AAAAAAMAL8ggGAAAAAAAAiBGCAQAAAAAAAGKEYAAAAAAAAIAYIRgAAAAAAAAgZhmAJ/X5M6sBAAAAAADgikcwAAAAAAAAQIwQDAAAAAAAABAjBAMAAAAAAADECMEAAAAAAAAAMUIwAAAAAAAAQIwQDAAAAAAAABAjBAMAAAAAAADECMEAAAAAAAAAMUIwAAAAAAAAQIwQDAAAAAAAABAjBAMAAAAAAADECMEAAAAAAAAAMUIwAAAAAAAAQIwQDAAAAAAAABAjBAMAAAAAAADECMEAAAAAAAAAMUIwAAAAAAAAQIwQDAAAAAAAABAjBAMAAAAAAADECMEAAAAAAAAAMUIwAAAAAAAAQIwQDAAAAAAAABAjBAMAAAAAAADECMEAAAAAAAAAMUIwAAAAAAAAQIwQDAAAAAAAABAjBAMAAAAAAADECMEAAAAAAAAAMUIwAAAAAAAAQIwQDAAAAAAAABAjBAMAAAAAAADECMEAAAAAAAAAMUIwAAAAAAAAQIwQDAAAAAAAABAjBAMAAAAAAADECMEAAAAAAAAAMUIwAAAAAAAAQIwQDAAAAAAAABAjBAMAAAAAAADECMEAAAAAAAAAMUIwAAAAAAAAQIwQDAAAAAAAABAjBAMAAAAAAADECMEAAAAAAAAAMUIwAAAAAAAAQIwQDAAAAAAAABAjBAMAAAAAAADECMEAAAAAAAAAMUIwAAAAAAAAQIwQDAAAAAAAABAjBAMAAAAAAADECMEAAAAAAAAAMUIwAAAAAAAAQIwQDAAAAAAAABAjBAMAAAAAAADECMEAAAAAAAAAMUIwAAAAAAAAQIwQDAAAAAAAABAjBAMAAAAAAADECMEAAAAAAAAAMUIwAAAAAAAAQIwQDAAAAAAAABAjBAMAAAAAAADECMEAAAAAAAAAMUIwAAAAAAAAQIwQDAAAAAAAABAjBAMAAAAAAADECMEAAAAAAAAAMUIwAAAAAAAAQIwQDAAAAAAAABAjBAMAAAAAAADECMEAAAAAAAAAMUIwAAAAAAAAQIwQDAAAAAAAABAjBAMAAAAAAADECMEAAAAAAAAAMUIwAAAAAAAAQIwQDAAAAAAAABAjBAMAAAAAAADECMEAAAAAAAAAMUIwAAAAAAAAQIwQDAAAAAAAABAjBAMAAAAAAADECMEAAAAAAAAAMUIwAAAAAAAAQIwQDAAAAAAAABAjBAMAAAAAAADECMEAAAAAAAAAMUIwAAAAAAAAQIwQDAAAAAAAABAjBAMAAAAAAADECMEAAAAAAAAAMUIwAAAAAAAAQIwQDAAAAAAAABAjBAMAAAAAAADECMEAAAAAAAAAMUIwAAAAAAAAQIwQDAAAAAAAABAjBAMAAAAAAADECMEAAAAAAAAAMUIwAAAAAAAAQIwQDAAAAAAAABAjBAMAAAAAAADECMEAAAAAAAAAMUIwAAAAAAAAQIwQDAAAAAAAABAjBAMAAAAAAADECMEAAAAAAAAAMUIwAAAAAAAAQIwQDAAAAAAAABAjBAMAAAAAAADECMEAAAAAAAAAMUIwAAAAAAAAQIwQDAAAAAAAABAjBAMAAAAAAADECMEAAAAAAAAAMUIwAAAAAAAAQIwQDAAAAAAAABAjBAMAAAAAAADECMEAAAAAAAAAMUIwAAAAAAAAQIwQDAAAAAAAABAjBAMAAAAAAADECMEAAAAAAAAAMUIwAAAAAAAAQIwQDAAAAAAAABAjBAMAAAAAAADECMEAAAAAAAAAMUIwAAAAAAAAQIwQDAAAAAAAABAjBAMAAAAAAADECMEAAAAAAAAAMUIwAAAAAAAAQIwQDAAAAAAAABAjBAMAAAAAAADECMEAAAAAAAAAMUIwAAAAAAAAQIwQDAAAAAAAABAjBAMAAAAAAADECMEAAAAAAAAAMUIwAAAAAAAAQIwQDAAAAAAAABAjBAMAAAAAAADECMEAAAAAAAAAMUIwAAAAAAAAQIwQDAAAAAAAABAjBAMAAAAAAADECMEAAAAAAAAAMUIwAAAAAAAAQIwQDAAAAAAAABAjBAMAAAAAAADECMEAAAAAAAAAMUIwAAAAAAAAQIwQDAAAAAAAABAjBAMAAAAAAADECMEAAAAAAAAAMUIwAAAAAAAAQIwQDAAAAAAAABAjBAMAAAAAAADECMEAAAAAAAAAMUIwAAAAAAAAQIwQDAAAAAAAABAjBAMAAAAAAADECMEAAAAAAAAAMUIwAAAAAAAAQIwQDAAAAAAAABAjBAMAAAAAAADECMEAAAAAAAAAMUIwAAAAAAAAQIwQDAAAAAAAABAjBAMAAAAAAADECMEAAAAAAAAAMUIwAAAAAAAAQIwQDAAAAAAAABAjBAMAAAAAAADECMEAAAAAAAAAMUIwAAAAAAAAQIwQDAAAAAAAABAjBAMAAAAAAADECMEAAAAAAAAAMUIwAAAAAAAAQIwQDAAAAAAAABAjBAMAAAAAAADECMEAAAAAAAAAMUIwAAAAAAAAQIwQDAAAAAAAABAjBAMAAAAAAADECMEAAAAAAAAAMUIwAAAAAAAAQIwQDAAAAAAAABAjBAMAAAAAAADECMEAAAAAAAAAMUIwAAAAAAAAQIwQDAAAAAAAABAjBAMAAAAAAADECMEAAAAAAAAAMUIwAAAAAAAAQIwQDAAAAAAAABAjBAMAAAAAAADECMEAAAAAAAAAMUIwAAAAAAAAQIwQDAAAAAAAABAjBAMAAAAAAADECMEAAAAAAAAAMUIwAAAAAAAAQIwQDAAAAAAAABAjBAMAAAAAAADECMEAAAAAAAAAMUIwAAAAAAAAQIwQDAAAAAAAABAjBAMAAAAAAADECMEAAAAAAAAAMUIwAAAAAAAAQIwQDAAAAAAAABAjBAMAAAAAAADECMEAAAAAAAAAMUIwAAAAAAAAQIwQDAAAAAAAABAjBAMAAAAAAADECMEAAAAAAAAAMUIwAAAAAAAAQIwQDAAAAAAAABAjBAMAAAAAAADECMEAAAAAAAAAMUIwAAAAAAAAQIwQDAAAAAAAABAjBAMAAAAAAADECMEAAAAAAAAAMUIwAAAAAAAAQIwQDAAAAAAAABAjBAMAAAAAAADECMEAAAAAAAAAMUIwAAAAAAAAQIwQDAAAAAAAABAjBAMAAAAAAADECMEAAAAAAAAAMUIwAAAAAAAAQIwQDAAAAAAAABAjBAMAAAAAAADECMEAAAAAAAAAMUIwAAAAAAAAQIwQDAAAAAAAABAjBAMAAAAAAADECMEAAAAAAAAAMUIwAAAAAAAAQIwQDAAAAAAAABAjBAMAAAAAAADECMEAAAAAAAAAMUIwAAAAAAAAQIwQDAAAAAAAABAjBAMAAAAAAADECMEAAAAAAAAAMUIwAAAAAAAAQIwQDAAAAAAAABAjBAMAAAAAAADECMEAAAAAAAAAMUIwAAAAAAAAQIwQDAAAAAAAABAjBAMAAAAAAADECMEAAAAAAAAAMUIwAAAAAAAAQIwQDAAAAAAAABAjBAMAAAAAAADECMEAAAAAAAAAMUIwAAAAAAAAQIwQDAAAAAAAABAjBAMAAAAAAADECMEAAAAAAAAAMUIwAAAAAAAAQIwQDAAAAAAAABAjBAMAAAAAAADECMEAAAAAAAAAMUIwAAAAAAAAQIwQDAAAAAAAABAjBAMAAAAAAADECMEAAAAAAAAAMUIwAAAAAAAAQIwQDAAAAAAAABAjBAMAAAAAAADECMEAAAAAAAAAMUIwAAAAAAAAQIwQDAAAAAAAABAjBAMAAAAAAADECMEAAAAAAAAAMUIwAAAAAAAAQIwQDAAAAAAAABAjBAMAAAAAAADECMEAAAAAAAAAMUIwAAAAAAAAQIwQDAAAAAAAABAjBAMAAAAAAADECMEAAAAAAAAAMUIwAAAAAAAAQIwQDAAAAAAAABAjBAMAAAAAAADECMEAAAAAAAAAMUIwAAAAAAAAQIwQDAAAAAAAABAjBAMAAAAAAADECMEAAAAAAAAAMUIwAAAAAAAAQIwQDAAAAAAAABAjBAMAAAAAAADECMEAAAAAAAAAMUIwAAAAAAAAQIwQDAAAAAAAABAjBAMAAAAAAADECMEAAAAAAAAAMUIwAAAAAAAAQIwQDAAAAAAAABAjBAMAAAAAAADECMEAAAAAAAAAMUIwAAAAAAAAQIwQDAAAAAAAABAjBAMAAAAAAADECMEAAAAAAAAAMUIwAAAAAAAAQIwQDAAAAAAAABAjBAMAAAAAAADECMEAAAAAAAAAMUIwAAAAAAAAQIwQDAAAAAAAABAjBAMAAAAAAADECMEAAAAAAAAAMUIwAAAAAAAAQIwQDAAAAAAAABAjBAMAAAAAAADECMEAAAAAAAAAMUIwAAAAAAAAQIwQDAAAAAAAABAjBAMAAAAAAADECMEAAAAAAAAAMUIwAAAAAAAAQIwQDAAAAAAAABAjBAMAAAAAAADECMEAAAAAAAAAMUIwAAAAAAAAQIwQDAAAAAAAABAjBAMAAAAAAADECMEAAAAAAAAAMUIwAAAAAAAAQIwQDAAAAAAAABAjBAMAAAAAAADECMEAAAAAAAAAMUIwAAAAAAAAQIwQDAAAAAAAABAjBAMAAAAAAADECMEAAAAAAAAAMUIwAAAAAAAAQIwQDAAAAAAAABAjBAMAAAAAAADECMEAAAAAAAAAMUIwAAAAAAAAQIwQDAAAAAAAABAjBAMAAAAAAADECMEAAAAAAAAAMUIwAAAAAAAAQIwQDAAAAAAAABAjBAMAAAAAAADECMEAAAAAAAAAMUIwAAAAAAAAQIwQDAAAAAAAABAjBAMAAAAAAADECMEAAAAAAAAAMUIwAAAAAAAAQIwQDAAAAAAAABAjBAMAAAAAAADECMEAAAAAAAAAMUIwAAAAAAAAQIwQDAAAAAAAABAjBAMAAAAAAADECMEAAAAAAAAAMUIwAAAAAAAAQIwQDAAAAAAAABAjBAMAAAAAAADECMEAAAAAAAAAMUIwAAAAAAAAQIwQDAAAAAAAABAjBAMAAAAAAADECMEAAAAAAAAAMUIwAAAAAAAAQIwQDAAAAAAAABAjBAMAAAAAAADECMEAAAAAAAAAMUIwAAAAAAAAQIwQDAAAAAAAABAjBAMAAAAAAADECMEAAAAAAAAAMUIwAAAAAAAAQIwQDAAAAAAAABAjBAMAAAAAAADECMEAAAAAAAAAMUIwAAAAAAAAQIwQDAAAAAAAABAjBAMAAAAAAADECMEAAAAAAAAAMUIwAAAAAAAAQIwQDAAAAAAAABAjBAMAAAAAAADECMEAAHBp345qEAYAKAa+JYhGAkb4QAuiQMAELGvubDQFAAAAgBghGAAAAAAAACBGCAYAAAAAAACIEYIBAAAAAAAAYoRgAAAAAAAAgBghGAAAAAAAACBGCAYAAAAAAACIEYIBAAAAAAAAYoRgAAAAAAAAgBghGAAAAAAAACBGCAYAAAAAAACIEYIBAAAAAAAAYoRgAAAAAAAAgBghGAAAAAAAACBGCAYAAAAAAACIEYIBAAAAAAAAYoRgAAAAAAAAgBghGAAAAAAAACBGCAYAAAAAAACIEYIBAAAAAAAAYoRgAAAAAAAAgBghGAAAAAAAACBGCAYAAAAAAACIEYIBAAAAAAAAYoRgAAAAAAAAgBghGAAAAAAAACBGCAYAAAAAAACIEYIBAAAAAAAAYoRgAAAAAAAAgBghGAAAAAAAACBGCAYAAAAAAACIEYIBAAAAAAAAYoRgAAAAAAAAgBghGAAAAAAAACBGCAYAAAAAAACIEYIBAAAAAAAAYoRgAAAAAAAAgBghGAAAAAAAACBGCAYAAAAAAACIEYIBAAAAAAAAYoRgAAAAAAAAgBghGAAAAAAAACBGCAYAAAAAAACIEYIBAAAAAAAAYoRgAAAAAAAAgBghGAAAAAAAACBGCAYAAAAAAACIEYIBAAAAAAAAYoRgAAAAAAAAgBghGAAAAAAAACBGCAYAAAAAAACIEYIBAAAAAAAAYoRgAAAAAAAAgBghGAAAAAAAACBGCAYAAAAAAACIEYIBAAAAAAAAYoRgAAAAAAAAgBghGAAAAAAAACBGCAYAAAAAAACIEYIBAAAAAAAAYoRgAAAAAAAAgBghGAAAAAAAACBGCAYAAAAAAACIEYIBAAAAAAAAYoRgAAAAAAAAgBghGAAAAAAAACBGCAYAAAAAAACIEYIBAAAAAAAAYoRgAAAAAAAAgBghGAAAAAAAACBGCAYAAAAAAACIEYIBAAAAAAAAYoRgAAAAAAAAgBghGAAAAAAAACBGCAYAAAAAAACIEYIBAAAAAAAAYoRgAAAAAAAAgBghGAAAAAAAACBGCAYAAAAAAACIEYIBAAAAAAAAYoRgAAAAAAAAgBghGAAAAAAAACBGCAYAAAAAAACIEYIBAAAAAAAAYoRgAAAAAAAAgBghGAAAAAAAACBGCAYAAAAAAACIEYIBAAAAAAAAYoRgAAAAAAAAgBghGAAAAAAAACBGCAYAAAAAAACIEYIBAAAAAAAAYoRgAAAAAAAAgBghGAAAAAAAACBGCAYAAAAAAACIEYIBAAAAAAAAYoRgAAAAAAAAgBghGAAAAAAAACBGCAYAAAAAAACIEYIBAAAAAAAAYoRgAAAAAAAAgBghGAAAAAAAACBGCAYAAAAAAACIEYIBAAAAAAAAYoRgAAAAAAAAgBghGAAAAAAAACBGCAYAAAAAAACIEYIBAAAAAAAAYoRgAAAAAAAAgBghGAAAAAAAACBGCAYAAAAAAACIEYIBAAAAAAAAYoRgAAAAAAAAgBghGAAAAAAAACBGCAYAAAAAAACIEYIBAAAAAAAAYoRgAAAAAAAAgBghGAAAAAAAACBGCAYAAAAAAACIEYIBAAAAAAAAYoRgAAAAAAAAgBghGAAAAAAAACBGCAYAAAAAAACIEYIBAAAAAAAAYoRgAAAAAAAAgBghGAAAAAAAACBGCAYAAAAAAACIEYIBAAAAAAAAYoRgAAAAAAAAgBghGAAAAAAAACBGCAYAAAAAAACIEYIBAAAAAAAAYoRgAAAAAAAAgBghGAAAAAAAACBGCAYAAAAAAACIEYIBAAAAAAAAYoRgAAAAAAAAgBghGAAAAAAAACBGCAYAAAAAAACIEYIBAAAAAAAAYoRgAAAAAAAAgBghGAAAAAAAACBGCAYAAAAAAACIEYIBAAAAAAAAYoRgAAAAAAAAgBghGAAAAAAAACBGCAYAAAAAAACIEYIBAAAAAAAAYoRgAAAAAAAAgBghGAAAAAAAACBGCAYAAAAAAACIEYIBAAAAAAAAYoRgAAAAAAAAgBghGAAAAAAAACBGCAYAAAAAAACIEYIBAAAAAAAAYoRgAAAAAAAAgBghGAAAAAAAACBGCAYAAAAAAACIEYIBAAAAAAAAYoRgAAAAAAAAgBghGAAAAAAAACBGCAYAAAAAAACIEYIBAAAAAAAAYoRgAAAAAAAAgBghGAAAAAAAACBGCAYAAAAAAACIEYIBAAAAAAAAYoRgAAAAAAAAgBghGAAAAAAAACBGCAYAAAAAAACIEYIBAAAAAAAAYoRgAAAAAAAAgBghGAAAAAAAACBGCAYAAAAAAACIEYIBAAAAAAAAYoRgAAAAAAAAgBghGAAAAAAAACBGCAYAAAAAAACIEYIBAAAAAAAAYoRgAAAAAAAAgBghGAAAAAAAACBGCAYAAAAAAACIEYIBAAAAAAAAYoRgAAAAAAAAgBghGAAAAAAAACBGCAYAAAAAAACIEYIBAAAAAAAAYoRgAAAAAAAAgBghGAAAAAAAACBGCAYAAAAAAACIEYIBAAAAAAAAYoRgAAAAAAAAgBghGAAAAAAAACBGCAYAAAAAAACIEYIBAAAAAAAAYoRgAAAAAAAAgBghGAAAAAAAACBGCAYAAAAAAACIEYIBAAAAAAAAYoRgAAAAAAAAgBghGAAAAAAAACBGCAYAAAAAAACIEYIBAAAAAAAAYoRgAAAAAAAAgBghGAAAAAAAACBGCAYAAAAAAACIEYIBAAAAAAAAYoRgAAAAAAAAgBghGAAAAAAAACBGCAYAAAAAAACIEYIBAAAAAAAAYoRgAAAAAAAAgJjHAG7q+9l7AAAAAAAAnDiCAQAAAAAAAGKEYAAAAAAAAIAYIRgAAAAAAAAg5vhtzwHc0LG9BgAAAAAAAAAAAAAAAAAAAAAAAAAAAAAAAAAAAADX+QPkIxZZNoVNCgAAAABJRU5ErkJggg==;" vertex="1" parent="1">
                    <mxGeometry x="1040" width="439.19" height="210" as="geometry"/>
                </mxCell>
            </root>
        </mxGraphModel>
    </diagram>
</mxfile>